<svg width="46" height="39" viewBox="0 0 46 39" fill="none" xmlns="http://www.w3.org/2000/svg">
<path d="M44.1842 18.2801C44.0237 18.2801 43.8697 18.3443 43.7562 18.4586C43.6427 18.5729 43.5789 18.7279 43.5789 18.8895C43.5789 19.0511 43.6427 19.2061 43.7562 19.3204C43.8697 19.4347 44.0237 19.4989 44.1842 19.4989C44.6091 19.4989 44.7895 19.6805 44.7895 20.1082V27.4207C44.7895 27.8485 44.6091 28.0301 44.1842 28.0301H34.5C34.0751 28.0301 33.8947 27.8485 33.8947 27.4207V21.327C33.8947 20.8992 34.0751 20.7176 34.5 20.7176H41.7632C41.9237 20.7176 42.0776 20.6534 42.1911 20.5391C42.3047 20.4249 42.3684 20.2699 42.3684 20.1082V12.7957C42.3684 11.6855 41.6554 10.9676 40.5526 10.9676H3.63158C2.139 10.9676 1.21053 10.0328 1.21053 8.53012C1.21053 7.0274 2.139 6.09262 3.63158 6.09262H9.77621L6.11316 7.30893C6.03493 7.33164 5.96207 7.37001 5.89891 7.42173C5.83576 7.47345 5.78362 7.53747 5.74561 7.60996C5.70761 7.68244 5.68451 7.7619 5.67772 7.84358C5.67092 7.92526 5.68056 8.00748 5.70606 8.08532C5.73156 8.16316 5.7724 8.23501 5.82612 8.2966C5.87985 8.35818 5.94536 8.40821 6.01875 8.44371C6.09213 8.47921 6.17186 8.49943 6.25319 8.50318C6.33452 8.50693 6.41576 8.49412 6.49205 8.46552L28.4256 1.18593C28.5011 1.1608 28.5709 1.12095 28.6312 1.06864C28.6914 1.01633 28.7408 0.952596 28.7765 0.881071C28.8122 0.809547 28.8337 0.731635 28.8395 0.651783C28.8453 0.571931 28.8355 0.491703 28.8105 0.41568C28.7856 0.339657 28.746 0.269327 28.694 0.208707C28.6421 0.148087 28.5788 0.0983628 28.5077 0.0623743C28.4367 0.0263858 28.3593 0.00483749 28.28 -0.00104038C28.2007 -0.00691825 28.121 0.00298948 28.0455 0.0281171L13.3981 4.89093C13.3703 4.88605 13.3448 4.87387 13.3158 4.87387H3.63158C1.45989 4.87387 0 6.34368 0 8.53012V35.3426C0 37.5291 1.45989 38.9989 3.63158 38.9989H40.5526C41.6554 38.9989 42.3684 38.281 42.3684 37.1707V31.077C42.3684 30.9154 42.3047 30.7604 42.1911 30.6461C42.0776 30.5318 41.9237 30.4676 41.7632 30.4676C41.6026 30.4676 41.4487 30.5318 41.3352 30.6461C41.2217 30.7604 41.1579 30.9154 41.1579 31.077V37.1707C41.1579 37.5985 40.9775 37.7801 40.5526 37.7801H3.63158C2.139 37.7801 1.21053 36.8453 1.21053 35.3426V11.3479C1.83153 11.8756 2.65347 12.1864 3.63158 12.1864H40.5526C40.9775 12.1864 41.1579 12.368 41.1579 12.7957V19.4989H34.5C33.3972 19.4989 32.6842 20.2167 32.6842 21.327V27.4207C32.6842 28.531 33.3972 29.2489 34.5 29.2489H44.1842C45.287 29.2489 46 28.531 46 27.4207V20.1082C46 18.998 45.287 18.2801 44.1842 18.2801Z" fill="white"/>
</svg>
